v 1.250000 0.000000 0.000000
v 1.125000 0.216506 0.000000
v 0.875000 0.216506 0.000000
v 0.750000 0.000000 0.000000
v 0.875000 -0.216506 0.000000
v 1.125000 -0.216506 0.000000
v 1.082532 0.000000 -0.625000
v 0.974279 0.216506 -0.562500
v 0.757772 0.216506 -0.437500
v 0.649519 0.000000 -0.375000
v 0.757772 -0.216506 -0.437500
v 0.974279 -0.216506 -0.562500
v 0.625000 0.000000 -1.082532
v 0.562500 0.216506 -0.974279
v 0.437500 0.216506 -0.757772
v 0.375000 0.000000 -0.649519
v 0.437500 -0.216506 -0.757772
v 0.562500 -0.216506 -0.974279
v 0.000000 0.000000 -1.250000
v 0.000000 0.216506 -1.125000
v 0.000000 0.216506 -0.875000
v 0.000000 0.000000 -0.750000
v 0.000000 -0.216506 -0.875000
v 0.000000 -0.216506 -1.125000
v -0.625000 0.000000 -1.082532
v -0.562500 0.216506 -0.974279
v -0.437500 0.216506 -0.757772
v -0.375000 0.000000 -0.649519
v -0.437500 -0.216506 -0.757772
v -0.562500 -0.216506 -0.974279
v -1.082532 0.000000 -0.625000
v -0.974278 0.216506 -0.562500
v -0.757772 0.216506 -0.437500
v -0.649519 0.000000 -0.375000
v -0.757772 -0.216506 -0.437500
v -0.974278 -0.216506 -0.562500
v -1.250000 0.000000 -0.000000
v -1.125000 0.216506 -0.000000
v -0.875000 0.216506 -0.000000
v -0.750000 0.000000 -0.000000
v -0.875000 -0.216506 -0.000000
v -1.125000 -0.216506 -0.000000
v -1.082532 0.000000 0.625000
v -0.974279 0.216506 0.562500
v -0.757772 0.216506 0.437500
v -0.649519 0.000000 0.375000
v -0.757772 -0.216506 0.437500
v -0.974279 -0.216506 0.562500
v -0.625000 0.000000 1.082532
v -0.562500 0.216506 0.974279
v -0.437500 0.216506 0.757772
v -0.375000 0.000000 0.649519
v -0.437500 -0.216506 0.757772
v -0.562500 -0.216506 0.974279
v 0.000000 0.000000 1.250000
v 0.000000 0.216506 1.125000
v 0.000000 0.216506 0.875000
v 0.000000 0.000000 0.750000
v 0.000000 -0.216506 0.875000
v 0.000000 -0.216506 1.125000
v 0.625000 0.000000 1.082532
v 0.562500 0.216506 0.974279
v 0.437500 0.216506 0.757772
v 0.375000 0.000000 0.649519
v 0.437500 -0.216506 0.757772
v 0.562500 -0.216506 0.974279
v 1.082532 0.000000 0.625000
v 0.974279 0.216506 0.562500
v 0.757772 0.216506 0.437500
v 0.649519 0.000000 0.375000
v 0.757772 -0.216506 0.437500
v 0.974279 -0.216506 0.562500
vn 0.8436 0.4871 -0.2260
vn -0.0000 1.0000 -0.0000
vn -0.8436 0.4871 0.2260
vn -0.8436 -0.4871 0.2260
vn -0.0000 -1.0000 -0.0000
vn 0.8436 -0.4871 -0.2260
vn 0.6176 0.4871 -0.6176
vn -0.6176 0.4871 0.6176
vn -0.6176 -0.4871 0.6176
vn 0.6176 -0.4871 -0.6176
vn 0.2260 0.4871 -0.8436
vn -0.2260 0.4871 0.8436
vn -0.2260 -0.4871 0.8436
vn 0.2260 -0.4871 -0.8436
vn -0.2260 0.4871 -0.8436
vn 0.2260 0.4871 0.8436
vn 0.2260 -0.4871 0.8436
vn -0.2260 -0.4871 -0.8436
vn -0.6176 0.4871 -0.6176
vn 0.6176 0.4871 0.6176
vn 0.6176 -0.4871 0.6176
vn -0.6176 -0.4871 -0.6176
vn -0.8436 0.4871 -0.2260
vn 0.8436 0.4871 0.2260
vn 0.8436 -0.4871 0.2260
vn -0.8436 -0.4871 -0.2260
vt 0.500000 0.500000
vt 0.500000 0.666667
vt 0.500000 0.833333
vt 0.500000 1.000000
vt 0.500000 -0.000000
vt 0.500000 0.166667
vt 0.500000 0.333333
vt 0.583333 0.500000
vt 0.583333 0.666667
vt 0.583333 0.833333
vt 0.583333 1.000000
vt 0.583333 -0.000000
vt 0.583333 0.166667
vt 0.583333 0.333333
vt 0.666667 0.500000
vt 0.666667 0.666667
vt 0.666667 0.833333
vt 0.666667 -0.000000
vt 0.666667 1.000000
vt 0.666667 0.166667
vt 0.666667 0.333333
vt 0.750000 0.500000
vt 0.750000 0.666667
vt 0.750000 0.833333
vt 0.750000 -0.000000
vt 0.750000 1.000000
vt 0.750000 0.166667
vt 0.750000 0.333333
vt 0.833333 0.500000
vt 0.833333 0.666667
vt 0.833333 0.833333
vt 0.833333 -0.000000
vt 0.833333 1.000000
vt 0.833333 0.166667
vt 0.833333 0.333333
vt 0.916667 0.500000
vt 0.916667 0.666667
vt 0.916667 0.833333
vt 0.916667 -0.000000
vt 0.916667 1.000000
vt 0.916667 0.166667
vt 0.916667 0.333333
vt 1.000000 0.500000
vt 0.000000 0.500000
vt 1.000000 0.666667
vt 0.000000 0.666667
vt 1.000000 0.833333
vt 0.000000 0.833333
vt 0.000000 -0.000000
vt 1.000000 1.000000
vt 1.000000 -0.000000
vt 0.000000 1.000000
vt 1.000000 0.166667
vt 0.000000 0.166667
vt 1.000000 0.333333
vt 0.000000 0.333333
vt 0.083333 0.500000
vt 0.083333 0.666667
vt 0.083333 0.833333
vt 0.083333 -0.000000
vt 0.083333 1.000000
vt 0.083333 0.166667
vt 0.083333 0.333333
vt 0.166667 0.500000
vt 0.166667 0.666667
vt 0.166667 0.833333
vt 0.166667 -0.000000
vt 0.166667 1.000000
vt 0.166667 0.166667
vt 0.166667 0.333333
vt 0.250000 0.500000
vt 0.250000 0.666667
vt 0.250000 0.833333
vt 0.250000 -0.000000
vt 0.250000 1.000000
vt 0.250000 0.166667
vt 0.250000 0.333333
vt 0.333333 0.500000
vt 0.333333 0.666667
vt 0.333333 0.833333
vt 0.333333 1.000000
vt 0.333333 -0.000000
vt 0.333333 0.166667
vt 0.333333 0.333333
vt 0.416667 0.500000
vt 0.416667 0.666667
vt 0.416667 0.833333
vt 0.416667 -0.000000
vt 0.416667 1.000000
vt 0.416667 0.166667
vt 0.416667 0.333333
s 0
f 1/1/1 8/9/1 2/2/1
f 8/9/2 3/3/2 2/2/2
f 3/3/3 10/11/3 4/4/3
f 10/12/4 5/6/4 4/5/4
f 5/6/5 12/14/5 6/7/5
f 6/7/6 7/8/6 1/1/6
f 13/15/7 8/9/7 7/8/7
f 8/9/2 15/17/2 9/10/2
f 9/10/8 16/19/8 10/11/8
f 16/18/9 11/13/9 10/12/9
f 17/20/5 12/14/5 11/13/5
f 18/21/10 7/8/10 12/14/10
f 19/22/11 14/16/11 13/15/11
f 20/23/2 15/17/2 14/16/2
f 21/24/12 16/19/12 15/17/12
f 22/25/13 17/20/13 16/18/13
f 23/27/5 18/21/5 17/20/5
f 24/28/14 13/15/14 18/21/14
f 19/22/15 26/30/15 20/23/15
f 26/30/2 21/24/2 20/23/2
f 27/31/16 22/26/16 21/24/16
f 28/32/17 23/27/17 22/25/17
f 29/34/5 24/28/5 23/27/5
f 30/35/18 19/22/18 24/28/18
f 31/36/19 26/30/19 25/29/19
f 32/37/2 27/31/2 26/30/2
f 33/38/20 28/33/20 27/31/20
f 34/39/21 29/34/21 28/32/21
f 35/41/5 30/35/5 29/34/5
f 36/42/22 25/29/22 30/35/22
f 31/36/23 38/45/23 32/37/23
f 32/37/2 39/47/2 33/38/2
f 39/47/24 34/40/24 33/38/24
f 40/51/25 35/41/25 34/39/25
f 41/53/5 36/42/5 35/41/5
f 42/55/26 31/36/26 36/42/26
f 43/57/3 38/46/3 37/44/3
f 44/58/2 39/48/2 38/46/2
f 45/59/1 40/52/1 39/48/1
f 46/60/6 41/54/6 40/49/6
f 47/62/5 42/56/5 41/54/5
f 48/63/4 37/44/4 42/56/4
f 49/64/8 44/58/8 43/57/8
f 44/58/2 51/66/2 45/59/2
f 51/66/7 46/61/7 45/59/7
f 52/67/10 47/62/10 46/60/10
f 53/69/5 48/63/5 47/62/5
f 48/63/9 49/64/9 43/57/9
f 55/71/12 50/65/12 49/64/12
f 56/72/2 51/66/2 50/65/2
f 57/73/11 52/68/11 51/66/11
f 58/74/14 53/69/14 52/67/14
f 59/76/5 54/70/5 53/69/5
f 60/77/13 49/64/13 54/70/13
f 61/78/16 56/72/16 55/71/16
f 62/79/2 57/73/2 56/72/2
f 63/80/15 58/75/15 57/73/15
f 64/82/18 59/76/18 58/74/18
f 65/83/5 60/77/5 59/76/5
f 66/84/17 55/71/17 60/77/17
f 67/85/20 62/79/20 61/78/20
f 68/86/2 63/80/2 62/79/2
f 69/87/19 64/81/19 63/80/19
f 64/82/22 71/90/22 65/83/22
f 65/83/5 72/91/5 66/84/5
f 72/91/21 61/78/21 66/84/21
f 67/85/24 2/2/24 68/86/24
f 68/86/2 3/3/2 69/87/2
f 3/3/23 70/89/23 69/87/23
f 4/5/26 71/90/26 70/88/26
f 5/6/5 72/91/5 71/90/5
f 72/91/25 1/1/25 67/85/25
f 1/1/1 7/8/1 8/9/1
f 8/9/2 9/10/2 3/3/2
f 3/3/3 9/10/3 10/11/3
f 10/12/4 11/13/4 5/6/4
f 5/6/5 11/13/5 12/14/5
f 6/7/6 12/14/6 7/8/6
f 13/15/7 14/16/7 8/9/7
f 8/9/2 14/16/2 15/17/2
f 9/10/8 15/17/8 16/19/8
f 16/18/9 17/20/9 11/13/9
f 17/20/5 18/21/5 12/14/5
f 18/21/10 13/15/10 7/8/10
f 19/22/11 20/23/11 14/16/11
f 20/23/2 21/24/2 15/17/2
f 21/24/12 22/26/12 16/19/12
f 22/25/13 23/27/13 17/20/13
f 23/27/5 24/28/5 18/21/5
f 24/28/14 19/22/14 13/15/14
f 19/22/15 25/29/15 26/30/15
f 26/30/2 27/31/2 21/24/2
f 27/31/16 28/33/16 22/26/16
f 28/32/17 29/34/17 23/27/17
f 29/34/5 30/35/5 24/28/5
f 30/35/18 25/29/18 19/22/18
f 31/36/19 32/37/19 26/30/19
f 32/37/2 33/38/2 27/31/2
f 33/38/20 34/40/20 28/33/20
f 34/39/21 35/41/21 29/34/21
f 35/41/5 36/42/5 30/35/5
f 36/42/22 31/36/22 25/29/22
f 31/36/23 37/43/23 38/45/23
f 32/37/2 38/45/2 39/47/2
f 39/47/24 40/50/24 34/40/24
f 40/51/25 41/53/25 35/41/25
f 41/53/5 42/55/5 36/42/5
f 42/55/26 37/43/26 31/36/26
f 43/57/3 44/58/3 38/46/3
f 44/58/2 45/59/2 39/48/2
f 45/59/1 46/61/1 40/52/1
f 46/60/6 47/62/6 41/54/6
f 47/62/5 48/63/5 42/56/5
f 48/63/4 43/57/4 37/44/4
f 49/64/8 50/65/8 44/58/8
f 44/58/2 50/65/2 51/66/2
f 51/66/7 52/68/7 46/61/7
f 52/67/10 53/69/10 47/62/10
f 53/69/5 54/70/5 48/63/5
f 48/63/9 54/70/9 49/64/9
f 55/71/12 56/72/12 50/65/12
f 56/72/2 57/73/2 51/66/2
f 57/73/11 58/75/11 52/68/11
f 58/74/14 59/76/14 53/69/14
f 59/76/5 60/77/5 54/70/5
f 60/77/13 55/71/13 49/64/13
f 61/78/16 62/79/16 56/72/16
f 62/79/2 63/80/2 57/73/2
f 63/80/15 64/81/15 58/75/15
f 64/82/18 65/83/18 59/76/18
f 65/83/5 66/84/5 60/77/5
f 66/84/17 61/78/17 55/71/17
f 67/85/20 68/86/20 62/79/20
f 68/86/2 69/87/2 63/80/2
f 69/87/19 70/89/19 64/81/19
f 64/82/22 70/88/22 71/90/22
f 65/83/5 71/90/5 72/91/5
f 72/91/21 67/85/21 61/78/21
f 67/85/24 1/1/24 2/2/24
f 68/86/2 2/2/2 3/3/2
f 3/3/23 4/4/23 70/89/23
f 4/5/26 5/6/26 71/90/26
f 5/6/5 6/7/5 72/91/5
f 72/91/25 6/7/25 1/1/25
